<?xml version="1.0" encoding="UTF-8" standalone="no"?>
<!-- Created with Inkscape (http://www.inkscape.org/) -->

<svg
   xmlns:dc="http://purl.org/dc/elements/1.1/"
   xmlns:cc="http://creativecommons.org/ns#"
   xmlns:rdf="http://www.w3.org/1999/02/22-rdf-syntax-ns#"
   xmlns:svg="http://www.w3.org/2000/svg"
   xmlns="http://www.w3.org/2000/svg"
   xmlns:sodipodi="http://sodipodi.sourceforge.net/DTD/sodipodi-0.dtd"
   xmlns:inkscape="http://www.inkscape.org/namespaces/inkscape"
   version="1.1"
   id="svg3278"
   xml:space="preserve"
   width="800"
   height="800"
   viewBox="0 0 800 800"
   sodipodi:docname="lines-stripes-color-svg.svg"
   inkscape:version="0.92.4 (5da689c313, 2019-01-14)"><metadata
     id="metadata3284"><rdf:RDF><cc:Work
         rdf:about=""><dc:format>image/svg+xml</dc:format><dc:type
           rdf:resource="http://purl.org/dc/dcmitype/StillImage" /><dc:title></dc:title></cc:Work></rdf:RDF></metadata><defs
     id="defs3282"><clipPath
       clipPathUnits="userSpaceOnUse"
       id="clipPath3294"><path
         d="M 0,600 H 600 V 0 H 0 Z"
         id="path3292"
         inkscape:connector-curvature="0" /></clipPath></defs><sodipodi:namedview
     pagecolor="#ffffff"
     bordercolor="#666666"
     borderopacity="1"
     objecttolerance="10"
     gridtolerance="10"
     guidetolerance="10"
     inkscape:pageopacity="0"
     inkscape:pageshadow="2"
     inkscape:window-width="1920"
     inkscape:window-height="1018"
     id="namedview3280"
     showgrid="false"
     inkscape:zoom="0.83485"
     inkscape:cx="430.50847"
     inkscape:cy="396.61017"
     inkscape:window-x="-8"
     inkscape:window-y="-8"
     inkscape:window-maximized="1"
     inkscape:current-layer="g3286" /><g
     id="g3286"
     inkscape:groupmode="layer"
     inkscape:label="abstract-893-publicdomainvectors.org"
     transform="matrix(1.3333333,0,0,-1.3333333,0,800)"><g
       id="g3288"><g
         id="g3290"
         clip-path="url(#clipPath3294)"><path
           d="m 601.956,513.892 c -14.389,-0.642 -29.14,-1.55 -44.256,-2.761 -31.278,-2.499 -64.282,-6.342 -98.929,-12.021 C 422.409,493.169 384.223,485.197 344.615,474.364 303.248,463.059 260.565,448.731 217.9,429.94 174.22,410.709 131.244,387.196 93.039,357.238 55.718,327.933 23.6,292.591 8.631,251.93 -5.644,213.09 0.413,165.807 29.115,129.567 45.327,109.206 67.908,91.036 94.853,75.729 124.085,59.208 158.047,46.056 195.135,36.08 274.628,14.735 362.716,8.726 450.593,13.924 c 43.258,2.532 85.396,7.847 125.81,15.341 8.622,1.598 17.142,3.295 25.553,5.085 V 24.008 C 550.536,12.596 495.621,4.807 438.377,1.798 350.713,-2.791 263.323,4.026 185.25,26.423 148.945,36.837 115.872,50.497 87.685,67.52 61.677,83.232 40.104,101.883 25.039,122.623 c -27.041,37.1 -30.838,84.843 -15.405,123.995 16.12,41.066 48.937,76.564 86.71,106.115 38.502,30.12 81.573,53.816 125.245,73.235 42.59,18.927 85.133,33.429 126.34,44.89 39.432,10.973 77.441,19.072 113.623,25.157 34.476,5.784 67.317,9.745 98.441,12.368 14.315,1.203 28.302,2.13 41.963,2.809 z"
           style="fill:rgb(255,11,255);fill-opacity:1;fill-rule:nonzero;stroke:none"
           id="path3296"
           inkscape:connector-curvature="0" /><path
           d="m 601.956,521.703 c -3.248,-0.095 -6.511,-0.202 -9.788,-0.322 -31.037,-1.135 -63.542,-3.459 -97.483,-7.311 -35.64,-4.067 -72.888,-9.823 -111.479,-17.971 C 342.809,487.582 301.13,476.527 259.032,461.845 215.655,446.724 172.449,428 132.024,403.906 91.968,380.021 55.427,351.408 30.426,316.417 6.931,283.529 -4.426,242.243 7.063,205.51 13.316,185.914 25.629,166.816 42.616,149.994 61.229,131.649 85.284,115.576 113.118,102.072 143.129,87.517 177.02,76.02 213.487,67.303 c 38.097,-9.135 78.23,-15.078 119.383,-18.291 83.445,-6.495 166.396,-1.711 243.947,10.938 8.482,1.378 16.862,2.848 25.139,4.405 V 53.616 C 589.802,51.22 577.428,49.011 564.845,47.002 486.876,34.611 403.879,30.26 320.928,37.51 280.179,41.115 240.569,47.444 203.15,57.036 167.419,66.18 134.389,78.182 105.317,93.134 78.431,107.095 55.357,123.58 37.812,142.274 21.755,159.482 10.374,178.94 5.153,198.773 c -9.895,37.552 2.971,78.969 27.399,112.176 25.842,35.243 62.785,64.088 103.089,88.242 40.542,24.29 83.747,43.199 127.04,58.538 41.965,14.848 83.481,26.081 123.694,34.78 38.406,8.291 75.463,14.244 110.93,18.427 33.767,4.006 66.114,6.426 97.005,7.686 2.557,0.103 5.106,0.198 7.646,0.286 z"
           style="fill:rgb(164,55,219);fill-opacity:1;fill-rule:nonzero;stroke:none"
           id="path3298"
           inkscape:connector-curvature="0" /><path
           d="m 601.956,529.791 c -0.695,-0.009 -1.392,-0.019 -2.09,-0.029 -30.311,-0.438 -62.062,-1.93 -95.24,-4.798 -34.8,-3.025 -71.199,-7.539 -108.999,-14.193 C 356.087,503.823 315.185,494.586 273.619,482.11 230.779,469.218 187.814,453.114 146.935,431.999 66.96,390.661 -7.857,321.532 5.39,250.942 c 3.513,-18.631 13.07,-37.296 27.389,-53.934 15.714,-18.28 37.216,-34.585 62.642,-48.635 27.675,-15.311 59.643,-27.759 94.532,-37.692 36.775,-10.5 76.044,-17.9 116.746,-22.753 83.401,-9.855 167.793,-8.446 247.875,1.073 16.113,1.909 31.914,4.145 47.382,6.678 V 84.45 c -19.421,-3.353 -39.358,-6.232 -59.768,-8.579 -80.361,-9.254 -164.63,-10.183 -247.326,0.435 -40.195,5.212 -78.827,13.041 -114.833,23.954 -34.07,10.334 -65.155,23.181 -91.774,38.952 -24.474,14.421 -44.952,31.166 -59.574,49.767 -13.458,16.957 -21.865,36.032 -24.558,54.845 -10.053,72.545 65.982,141.139 146.519,183.123 40.941,21.342 83.868,37.683 126.608,50.796 41.407,12.707 82.142,22.121 121.502,29.257 37.608,6.829 73.824,11.515 108.448,14.695 33.002,3.005 64.592,4.637 94.756,5.204 z"
           style="fill:rgb(255,11,255);fill-opacity:1;fill-rule:nonzero;stroke:none"
           id="path3300"
           inkscape:connector-curvature="0" /><path
           d="m 601.956,538.238 c -3.503,0.013 -7.023,0.013 -10.561,0 -31.346,-0.13 -64.254,-1.278 -98.707,-3.864 -36.16,-2.707 -74.026,-6.992 -113.379,-13.473 C 295.45,507.051 205.743,484.9 124.171,441.059 84.419,419.677 48.454,393.64 25.769,360.887 4.954,330.72 -0.997,290.537 16.662,257.845 c 10.033,-18.508 26.473,-35.927 47.449,-51.143 23.23,-16.914 51.728,-31.215 83.828,-43.229 34.51,-12.842 72.395,-22.809 112.534,-30.101 41.521,-7.571 84.474,-12.168 127.926,-14.276 74.222,-3.552 146.305,0.291 213.557,9.595 v -11.753 c -71.22,-10.504 -147.77,-14.792 -226.286,-10.477 -43.152,2.411 -85.677,7.291 -126.594,15.296 -39.445,7.674 -76.545,17.987 -110.08,31.312 -31.148,12.387 -58.597,27.157 -80.702,44.431 -19.95,15.606 -35.395,33.39 -44.283,52.179 -15.957,33.61 -8.11,73.929 13.684,104.531 23.623,33.129 60.079,59.462 100.143,81.197 40.891,22.156 84.689,38.827 128.649,52.086 42.834,12.918 85.138,22.305 126.062,29.308 39.15,6.706 76.829,11.17 112.803,14.062 34.271,2.761 67.011,4.075 98.203,4.334 2.811,0.024 5.612,0.038 8.401,0.045 z"
           style="fill:rgb(164,55,219);fill-opacity:1;fill-rule:nonzero;stroke:none"
           id="path3302"
           inkscape:connector-curvature="0" /><path
           d="m 601.956,546.994 c -6.971,0.147 -14.016,0.247 -21.137,0.298 -33.161,0.224 -68.137,-0.608 -104.899,-3.005 -38.636,-2.496 -79.216,-6.711 -121.426,-13.42 C 264.889,516.596 169.138,493.897 88.92,444.189 51.582,421.055 19.638,391.52 9.72,356.683 4.915,340.008 5.903,321.414 13.025,304.374 c 7.856,-18.64 23.084,-36.509 43.301,-52.186 22.807,-17.636 51.6,-32.734 84.562,-45.499 35.787,-13.828 75.502,-24.607 117.822,-32.665 88.961,-17.009 182.027,-21.321 271.867,-16.586 24.42,1.294 48.239,3.264 71.379,5.846 V 150.96 c -27.281,-3.301 -55.493,-5.731 -84.495,-7.181 -89.909,-4.508 -182.524,0.315 -270.269,18.163 -41.548,8.431 -80.37,19.585 -115.09,33.865 -31.91,13.131 -59.588,28.665 -81.144,46.693 -19.146,16.049 -33.208,34.364 -39.964,53.222 -6.244,17.425 -6.143,36.273 -0.63,53.162 11.521,35.418 44.099,65.237 81.988,88.827 80.746,50.209 176.257,73.806 265.535,88.631 41.992,6.981 82.367,11.413 120.801,14.139 36.564,2.605 71.36,3.628 104.356,3.566 6.364,-0.014 12.668,-0.067 18.912,-0.16 z"
           style="fill:rgb(255,11,255);fill-opacity:1;fill-rule:nonzero;stroke:none"
           id="path3304"
           inkscape:connector-curvature="0" /><path
           d="m 601.956,200.396 c -10.811,-0.909 -21.779,-1.691 -32.894,-2.339 -89.272,-5.232 -183.306,-2.06 -275.422,12.752 -44.436,7.116 -86.681,16.77 -125.48,29.399 -36.038,11.681 -68.075,25.642 -94.565,42.109 -23.439,14.628 -42.084,31.175 -53.361,49.113 -10.011,15.805 -14.015,33.6 -11.548,49.699 5.011,32.8 34.836,61.606 70.381,83.307 78.554,47.91 174.833,67.939 265.396,80.357 42.842,5.869 84.044,9.287 123.274,11.116 37.353,1.722 72.866,1.989 106.524,1.23 9.362,-0.212 18.593,-0.502 27.695,-0.864 v -3.226 c -8.367,0.278 -16.842,0.493 -25.427,0.641 -33.483,0.573 -68.81,0.105 -105.958,-1.864 -39.024,-2.059 -80.01,-5.765 -122.632,-11.945 C 257.703,526.793 161.607,505.777 82.429,457.246 46.242,435.02 15.672,405.988 8.895,372.436 5.579,356.146 8.52,338.049 17.533,321.822 c 10.045,-18.203 27.542,-35.18 49.848,-50.174 25.229,-16.859 56.143,-31.202 91.123,-43.257 37.79,-12.997 79.176,-23.034 122.903,-30.481 91.101,-15.496 184.864,-19.06 274.39,-13.941 15.672,0.895 31.064,2.06 46.159,3.474 z"
           style="fill:rgb(164,55,219);fill-opacity:1;fill-rule:nonzero;stroke:none"
           id="path3306"
           inkscape:connector-curvature="0" /><path
           d="m 601.956,238.661 c -31.767,-1.801 -64.621,-2.574 -98.355,-2.177 -90.105,1.06 -181.287,9.972 -266.768,29.345 -40.088,9.084 -77.283,20.19 -110.455,33.673 -30.18,12.293 -56.211,26.219 -76.52,42.094 -17.672,13.839 -30.691,29.316 -36.822,45.171 -5.491,14.26 -5.077,29.853 0.437,43.237 11.796,28.824 43.349,51.347 79.395,68.911 79.094,38.399 170.589,53.588 257.385,62.372 41.162,4.168 80.786,6.29 118.633,7.056 36.11,0.74 70.534,0.23 103.279,-1.13 10.076,-0.423 20.006,-0.926 29.791,-1.505 v -3.351 c -9.043,0.473 -18.209,0.879 -27.499,1.213 -32.574,1.166 -66.815,1.436 -102.722,0.452 -37.64,-1.053 -77.049,-3.461 -117.997,-7.94 C 267.28,546.596 175.93,530.475 96.464,491.257 59.87,473.189 27.647,450.255 14.446,420.799 8.192,407.201 6.921,391.382 11.443,376.685 c 4.979,-16.079 16.909,-31.983 33.525,-46.138 18.993,-16.282 43.922,-30.537 72.998,-43.126 32.03,-13.873 68.242,-25.257 107.436,-34.674 84.014,-20.052 174.448,-29.386 264.366,-30.641 38.553,-0.542 76.059,0.505 112.188,2.902 z"
           style="fill:rgb(255,11,255);fill-opacity:1;fill-rule:nonzero;stroke:none"
           id="path3308"
           inkscape:connector-curvature="0" /><path
           d="m 601.956,279 c -34.435,-0.988 -70.058,-0.848 -106.6,0.578 -90.222,3.489 -180.737,14.145 -265.099,34.074 -39.341,9.296 -75.695,20.311 -108.036,33.397 -29.26,11.859 -54.412,25.006 -73.974,39.893 -16.835,12.823 -29.31,26.973 -34.877,41.49 -5.014,12.835 -4.21,26.969 1.421,38.763 12.301,25.933 43.541,45.113 78.965,59.951 78.624,32.892 168.355,44.359 254.047,50.368 40.76,2.84 80.017,3.883 117.568,3.739 35.865,-0.139 70.085,-1.38 102.684,-3.365 11.487,-0.702 22.786,-1.498 33.901,-2.38 v -3.483 c -10.363,0.748 -20.887,1.418 -31.573,2.003 -32.42,1.775 -66.454,2.763 -102.115,2.622 -37.34,-0.143 -76.383,-1.495 -116.922,-4.712 C 265.995,565.177 176.416,552.625 97.438,518.839 61.469,503.448 29.69,483.724 15.897,457.196 c -6.218,-12.097 -7.97,-26.369 -3.97,-39.67 4.501,-14.702 15.825,-29.291 31.581,-42.442 18.303,-15.196 42.264,-28.737 70.396,-40.856 31.158,-13.464 66.491,-24.74 104.895,-34.3 82.787,-20.547 172.439,-31.53 262.37,-35.177 41.469,-1.659 81.865,-1.653 120.787,-0.151 z"
           style="fill:rgb(164,55,219);fill-opacity:1;fill-rule:nonzero;stroke:none"
           id="path3310"
           inkscape:connector-curvature="0" /></g></g></g></svg>