<svg xmlns="http://www.w3.org/2000/svg" viewBox="0 0 500 500"><g id="freepik--background-complete--inject-3"><rect y="382.4" width="500" height="0.25" style="fill:#ebebeb"></rect><rect x="416.78" y="398.49" width="33.12" height="0.25" style="fill:#ebebeb"></rect><rect x="322.53" y="401.21" width="8.69" height="0.25" style="fill:#ebebeb"></rect><rect x="396.59" y="389.21" width="19.19" height="0.25" style="fill:#ebebeb"></rect><rect x="52.46" y="390.89" width="43.19" height="0.25" style="fill:#ebebeb"></rect><rect x="104.56" y="390.89" width="6.33" height="0.25" style="fill:#ebebeb"></rect><rect x="131.47" y="395.11" width="93.68" height="0.25" style="fill:#ebebeb"></rect><path d="M237,337.8H43.91a5.71,5.71,0,0,1-5.7-5.71V60.66A5.71,5.71,0,0,1,43.91,55H237a5.71,5.71,0,0,1,5.71,5.71V332.09A5.71,5.71,0,0,1,237,337.8ZM43.91,55.2a5.46,5.46,0,0,0-5.45,5.46V332.09a5.46,5.46,0,0,0,5.45,5.46H237a5.47,5.47,0,0,0,5.46-5.46V60.66A5.47,5.47,0,0,0,237,55.2Z" style="fill:#ebebeb"></path><path d="M453.31,337.8H260.21a5.72,5.72,0,0,1-5.71-5.71V60.66A5.72,5.72,0,0,1,260.21,55h193.1A5.71,5.71,0,0,1,459,60.66V332.09A5.71,5.71,0,0,1,453.31,337.8ZM260.21,55.2a5.47,5.47,0,0,0-5.46,5.46V332.09a5.47,5.47,0,0,0,5.46,5.46h193.1a5.47,5.47,0,0,0,5.46-5.46V60.66a5.47,5.47,0,0,0-5.46-5.46Z" style="fill:#ebebeb"></path><rect x="74.55" y="79.78" width="155.62" height="171.1" transform="translate(304.71 330.65) rotate(180)" style="fill:#e6e6e6"></rect><rect x="69.47" y="79.78" width="158.33" height="171.1" transform="translate(297.26 330.65) rotate(180)" style="fill:#f0f0f0"></rect><polygon points="74.55 250.87 230.17 250.87 230.17 258.33 69.58 258.33 74.55 250.87" style="fill:#e6e6e6"></polygon><polygon points="61.01 250.87 219.33 250.87 214.36 258.33 56.03 258.33 61.01 250.87" style="fill:#f0f0f0"></polygon><rect x="70.19" y="93.27" width="156.88" height="144.11" transform="translate(313.96 16.69) rotate(90)" style="fill:#fafafa"></rect><polygon points="196.41 243.76 140.75 86.89 121.05 86.89 176.71 243.76 196.41 243.76" style="fill:#fff"></polygon><path d="M217.39,238.78a.55.55,0,0,0,.55-.55V91.51a.55.55,0,0,0-.55-.54.54.54,0,0,0-.54.54V238.23A.55.55,0,0,0,217.39,238.78Z" style="fill:#f0f0f0"></path><polygon points="154.48 243.76 98.82 86.89 91.14 86.89 146.8 243.76 154.48 243.76" style="fill:#fff"></polygon><rect x="-1.41" y="164.87" width="156.88" height="0.9" transform="translate(242.35 88.3) rotate(90)" style="fill:#e6e6e6"></rect><polygon points="67.78 100.61 223.41 100.61 224.06 89.65 68.44 89.65 67.78 100.61" style="fill:#e0e0e0;opacity:0.5"></polygon><polygon points="67.78 118.62 223.41 118.62 224.06 107.66 68.44 107.66 67.78 118.62" style="fill:#e0e0e0;opacity:0.5"></polygon><polygon points="67.78 136.63 223.41 136.63 224.06 125.68 68.44 125.68 67.78 136.63" style="fill:#e0e0e0;opacity:0.5"></polygon><polygon points="67.78 154.64 223.41 154.64 224.06 143.69 68.44 143.69 67.78 154.64" style="fill:#e0e0e0;opacity:0.5"></polygon><polygon points="67.78 172.66 223.41 172.66 224.06 161.7 68.44 161.7 67.78 172.66" style="fill:#e0e0e0;opacity:0.5"></polygon><polygon points="67.78 190.67 223.41 190.67 224.06 179.71 68.44 179.71 67.78 190.67" style="fill:#e0e0e0;opacity:0.5"></polygon><rect x="301.37" y="103" width="123.31" height="55.25" style="fill:#f5f5f5"></rect><rect x="301.37" y="103" width="123.31" height="1.94" style="fill:#e0e0e0"></rect><rect x="301.37" y="156.31" width="123.31" height="1.94" style="fill:#e0e0e0"></rect><polygon points="361.09 382.4 359.36 158.25 366.69 158.25 364.96 382.4 361.09 382.4" style="fill:#ebebeb"></polygon><polygon points="308.64 382.4 374.47 158.25 381.81 158.25 312.51 382.4 308.64 382.4" style="fill:#ebebeb"></polygon><polygon points="417.42 382.4 351.59 158.25 344.25 158.25 413.55 382.4 417.42 382.4" style="fill:#ebebeb"></polygon><rect x="81.23" y="292.44" width="7.09" height="93.78" transform="translate(169.55 678.67) rotate(180)" style="fill:#e6e6e6"></rect><rect x="78.99" y="292.44" width="4.93" height="93.78" transform="translate(162.9 678.67) rotate(180)" style="fill:#f0f0f0"></rect><rect x="77.38" y="288.08" width="156.83" height="13.07" style="fill:#f0f0f0"></rect><rect x="230.17" y="301.16" width="7.09" height="80.71" transform="translate(467.43 683.03) rotate(180)" style="fill:#e6e6e6"></rect><rect x="227.93" y="301.16" width="4.93" height="80.71" transform="translate(460.79 683.03) rotate(180)" style="fill:#f0f0f0"></rect><rect x="280.66" y="301.16" width="7.09" height="80.71" transform="translate(568.41 683.03) rotate(180)" style="fill:#e6e6e6"></rect><rect x="278.42" y="301.16" width="4.93" height="80.71" transform="translate(561.77 683.03) rotate(180)" style="fill:#f0f0f0"></rect><rect x="126.11" y="301.16" width="7.09" height="80.71" transform="translate(259.32 683.03) rotate(180)" style="fill:#e6e6e6"></rect><rect x="123.88" y="301.16" width="4.93" height="80.71" transform="translate(252.68 683.03) rotate(180)" style="fill:#f0f0f0"></rect><rect x="234.21" y="288.08" width="55.16" height="13.07" transform="translate(523.57 589.24) rotate(180)" style="fill:#e6e6e6"></rect><rect x="133.21" y="278.32" width="67.97" height="9.76" style="fill:#ebebeb"></rect><rect x="201.18" y="278.32" width="33.28" height="9.76" transform="translate(435.64 566.41) rotate(180)" style="fill:#e0e0e0"></rect><rect x="208.4" y="280.44" width="18.84" height="2.76" rx="1.38" transform="translate(435.64 563.65) rotate(-180)" style="fill:#f5f5f5"></rect><rect x="155.96" y="271.31" width="13.69" height="7.01" style="fill:#f5f5f5"></rect><rect x="162.31" y="268.38" width="0.99" height="2.93" style="fill:#e6e6e6"></rect><rect x="180.87" y="272.53" width="0.99" height="1.46" style="fill:#e6e6e6"></rect><rect x="173.03" y="273.99" width="16.67" height="4.33" style="fill:#f0f0f0"></rect></g><g id="freepik--Shadow--inject-3"><ellipse id="freepik--path--inject-3" cx="250" cy="416.24" rx="193.89" ry="11.32" style="fill:#f5f5f5"></ellipse></g><g id="freepik--weather-widget--inject-3"><rect x="221.68" y="91.54" width="7" height="1" style="fill:#A437DB"></rect><rect x="181.19" y="91.54" width="34.03" height="1" style="fill:#A437DB"></rect><path d="M401.46,231.56H87.1a12.9,12.9,0,0,1-12.52-11.38L63.13,106.42A10.14,10.14,0,0,1,73.36,95H387.72a12.92,12.92,0,0,1,12.53,11.38l11.44,113.76A10.13,10.13,0,0,1,401.46,231.56Z" style="fill:#A437DB"></path><path d="M132.11,223H94.3a12.27,12.27,0,0,1-11.89-10.8l-9.84-97.85a9.61,9.61,0,0,1,9.71-10.8h37.81A12.25,12.25,0,0,1,132,114.38l9.85,97.85A9.61,9.61,0,0,1,132.11,223Z" style="fill:#fff;opacity:0.30000000000000004"></path><path d="M198.21,227H158.32a12.93,12.93,0,0,1-12.54-11.4L135.25,111A10.14,10.14,0,0,1,145.5,99.57h39.89A12.92,12.92,0,0,1,197.93,111l10.53,104.68A10.15,10.15,0,0,1,198.21,227Z" style="fill:#fff"></path><path d="M261.43,223H223.62a12.25,12.25,0,0,1-11.88-10.8l-9.85-97.85a9.61,9.61,0,0,1,9.71-10.8h37.81a12.27,12.27,0,0,1,11.89,10.8l9.84,97.85A9.61,9.61,0,0,1,261.43,223Z" style="fill:#fff;opacity:0.30000000000000004"></path><path d="M326.09,223H288.28a12.26,12.26,0,0,1-11.88-10.8l-9.85-97.85a9.63,9.63,0,0,1,9.72-10.8h37.8A12.27,12.27,0,0,1,326,114.38l9.84,97.85A9.61,9.61,0,0,1,326.09,223Z" style="fill:#fff;opacity:0.2"></path><path d="M390.75,223H352.94a12.26,12.26,0,0,1-11.88-10.8l-9.85-97.85a9.63,9.63,0,0,1,9.72-10.8h37.8a12.27,12.27,0,0,1,11.89,10.8l9.84,97.85A9.61,9.61,0,0,1,390.75,223Z" style="fill:#fff;opacity:0.1"></path><path d="M245.22,135.62a6.28,6.28,0,0,0-6.11-5.51,5.18,5.18,0,0,0-2,.4,7.6,7.6,0,0,0-6.42-3.77,5.93,5.93,0,0,0-6,5.26,5.11,5.11,0,0,0-4.82,5.76,6.54,6.54,0,0,0,6.36,5.78h18.38a3.65,3.65,0,0,0,3.69-4.1A4.65,4.65,0,0,0,245.22,135.62Z" style="fill:#fff"></path><path d="M181.51,125.88a7.34,7.34,0,0,0-7.13-6.43,6.16,6.16,0,0,0-2.38.47,8.88,8.88,0,0,0-7.49-4.4,6.93,6.93,0,0,0-7,6.14,6,6,0,0,0-5.63,6.73,7.63,7.63,0,0,0,7.43,6.75h21.47a4.26,4.26,0,0,0,4.31-4.78A5.47,5.47,0,0,0,181.51,125.88Z" style="fill:#A437DB"></path><path d="M162.55,145.55a.9.9,0,0,1-.6-.23.89.89,0,0,1-.07-1.26l5.58-6.2a.89.89,0,0,1,1.32,1.19l-5.57,6.2A.88.88,0,0,1,162.55,145.55Z" style="fill:#A437DB"></path><path d="M168.87,145.55a.9.9,0,0,1-.6-.23.89.89,0,0,1-.07-1.26l5.58-6.2a.89.89,0,0,1,1.32,1.19l-5.57,6.2A.88.88,0,0,1,168.87,145.55Z" style="fill:#A437DB"></path><path d="M156.23,145.55a.9.9,0,0,1-.6-.23.89.89,0,0,1-.07-1.26l5.58-6.2a.89.89,0,0,1,1.32,1.19l-5.57,6.2A.88.88,0,0,1,156.23,145.55Z" style="fill:#A437DB"></path><g style="opacity:0.4"><path d="M372.55,131.45a5.43,5.43,0,0,0-5.27-4.75,4.56,4.56,0,0,0-1.76.34,6.56,6.56,0,0,0-5.53-3.25,5.12,5.12,0,0,0-5.2,4.54,4.42,4.42,0,0,0-4.16,5,5.65,5.65,0,0,0,5.49,5H372a3.13,3.13,0,0,0,3.17-3.53A4,4,0,0,0,372.55,131.45Z" style="fill:#fff"></path><path d="M358.54,146a.63.63,0,0,1-.44-.17.66.66,0,0,1-.05-.93l4-4.4a.66.66,0,1,1,1,.88l-4,4.4A.64.64,0,0,1,358.54,146Z" style="fill:#fff"></path><path d="M363.21,146a.61.61,0,0,1-.44-.17.65.65,0,0,1,0-.93l4-4.4a.66.66,0,1,1,1,.88l-4,4.4A.64.64,0,0,1,363.21,146Z" style="fill:#fff"></path><path d="M353.87,146a.64.64,0,0,1-.44-.17.66.66,0,0,1-.05-.93l4-4.4a.66.66,0,0,1,.93-.05.65.65,0,0,1,.05.93l-4,4.4A.64.64,0,0,1,353.87,146Z" style="fill:#fff"></path></g><g style="opacity:0.7000000000000001"><path d="M303.52,136.29a4.5,4.5,0,0,1-4.55,5.07,5.73,5.73,0,0,1-5.57-5.07,4.49,4.49,0,0,1,4.55-5.06A5.73,5.73,0,0,1,303.52,136.29Z" style="fill:#fff"></path><path d="M299.45,146.55a.43.43,0,0,1-.43-.39l-.24-2.31a.44.44,0,0,1,.39-.48.44.44,0,0,1,.48.39l.23,2.31a.43.43,0,0,1-.39.47Z" style="fill:#fff"></path><path d="M297.7,129.22a.44.44,0,0,1-.43-.4l-.23-2.3a.44.44,0,0,1,.39-.48.43.43,0,0,1,.47.39l.24,2.31a.43.43,0,0,1-.39.47Z" style="fill:#fff"></path><path d="M291,136.73h-2.31a.44.44,0,0,1-.43-.44.43.43,0,0,1,.43-.43H291a.43.43,0,0,1,.43.43A.44.44,0,0,1,291,136.73Z" style="fill:#fff"></path><path d="M308.28,136.73H306a.44.44,0,0,1-.43-.44.43.43,0,0,1,.43-.43h2.31a.43.43,0,0,1,.43.43A.44.44,0,0,1,308.28,136.73Z" style="fill:#fff"></path><path d="M306.1,143.67a.46.46,0,0,1-.29-.11l-1.8-1.63a.44.44,0,0,1,.59-.65l1.79,1.63a.44.44,0,0,1,0,.62A.43.43,0,0,1,306.1,143.67Z" style="fill:#fff"></path><path d="M292.61,131.42a.44.44,0,0,1-.29-.12l-1.79-1.63a.43.43,0,1,1,.58-.64l1.8,1.63a.44.44,0,0,1-.3.76Z" style="fill:#fff"></path><path d="M292.22,143.67a.44.44,0,0,1-.29-.11.43.43,0,0,1,0-.61l1.47-1.63a.43.43,0,0,1,.61,0,.44.44,0,0,1,0,.62l-1.47,1.63A.45.45,0,0,1,292.22,143.67Z" style="fill:#fff"></path><path d="M303.24,131.42a.4.4,0,0,1-.29-.12.43.43,0,0,1,0-.61l1.47-1.63a.44.44,0,0,1,.65.58l-1.47,1.63A.42.42,0,0,1,303.24,131.42Z" style="fill:#fff"></path></g><path d="M114.29,135a5.35,5.35,0,0,0-5.2-4.69,4.45,4.45,0,0,0-1.73.35,6.46,6.46,0,0,0-5.46-3.21,5,5,0,0,0-5.13,4.47,4.37,4.37,0,0,0-4.11,4.91,5.57,5.57,0,0,0,5.42,4.92h15.65a3.1,3.1,0,0,0,3.14-3.49A4,4,0,0,0,114.29,135Z" style="fill:#fff"></path><path d="M98.7,126.61a6.22,6.22,0,0,0-3.24,3.91,5.47,5.47,0,0,0-2.76,1.59A4.72,4.72,0,0,1,91,129a3.83,3.83,0,0,1,3.88-4.31A4.82,4.82,0,0,1,98.7,126.61Z" style="fill:#fff"></path><path d="M94.7,123a.37.37,0,0,1-.37-.33l-.19-2a.36.36,0,0,1,.33-.4.36.36,0,0,1,.4.33l.2,2a.37.37,0,0,1-.33.41Z" style="fill:#fff"></path><path d="M89,129.36H87a.37.37,0,0,1-.37-.37.36.36,0,0,1,.37-.37h2a.37.37,0,0,1,.37.37A.38.38,0,0,1,89,129.36Z" style="fill:#fff"></path><path d="M90.37,124.83a.38.38,0,0,1-.25-.09l-1.53-1.39a.37.37,0,0,1,.5-.55l1.53,1.39a.37.37,0,0,1,0,.52A.36.36,0,0,1,90.37,124.83Z" style="fill:#fff"></path><path d="M90,135.27a.35.35,0,0,1-.25-.1.37.37,0,0,1,0-.52L91,133.26a.39.39,0,0,1,.53,0,.38.38,0,0,1,0,.53l-1.25,1.39A.36.36,0,0,1,90,135.27Z" style="fill:#fff"></path><path d="M99.41,124.83a.36.36,0,0,1-.27-.61l1.25-1.39a.37.37,0,0,1,.52,0,.38.38,0,0,1,0,.52l-1.25,1.39A.39.39,0,0,1,99.41,124.83Z" style="fill:#fff"></path><path d="M130.54,202.71H91.78a2.15,2.15,0,0,1-2.08-1.89l-.39-3.89a1.68,1.68,0,0,1,1.7-1.88h38.76a2.14,2.14,0,0,1,2.07,1.88l.39,3.89A1.68,1.68,0,0,1,130.54,202.71Z" style="fill:#fff"></path><path d="M197.26,204.42H154.72a2.35,2.35,0,0,1-2.28-2.07l-.43-4.27a1.84,1.84,0,0,1,1.86-2.07h42.55a2.35,2.35,0,0,1,2.28,2.07l.43,4.27A1.85,1.85,0,0,1,197.26,204.42Z" style="fill:#A437DB"></path><path d="M259.86,202.71H221.1a2.14,2.14,0,0,1-2.07-1.89l-.39-3.89a1.67,1.67,0,0,1,1.69-1.88h38.76a2.13,2.13,0,0,1,2.07,1.88l.4,3.89A1.69,1.69,0,0,1,259.86,202.71Z" style="fill:#fff"></path><path d="M324.52,202.71H285.76a2.14,2.14,0,0,1-2.07-1.89l-.39-3.89a1.67,1.67,0,0,1,1.69-1.88h38.76a2.13,2.13,0,0,1,2.07,1.88l.4,3.89A1.69,1.69,0,0,1,324.52,202.71Z" style="fill:#fff;opacity:0.7000000000000001"></path><path d="M389.18,202.71H350.43a2.14,2.14,0,0,1-2.08-1.89l-.39-3.89a1.67,1.67,0,0,1,1.69-1.88h38.76a2.15,2.15,0,0,1,2.08,1.88l.39,3.89A1.69,1.69,0,0,1,389.18,202.71Z" style="fill:#fff;opacity:0.4"></path></g></svg>
