<?xml version="1.0" standalone="no"?>
<svg xmlns:xlink="http://www.w3.org/1999/xlink" id="wave" style="transform:rotate(180deg); transition: 0.3s" viewBox="0 0 1440 330" version="1.1" xmlns="http://www.w3.org/2000/svg"><defs><linearGradient id="sw-gradient-0" x1="0" x2="0" y1="1" y2="0"><stop stop-color="rgba(255, 11, 255, 1)" offset="0%"/><stop stop-color="rgba(255, 11, 255, 1)" offset="100%"/></linearGradient></defs><path style="transform:translate(0, 0px); opacity:1" fill="url(#sw-gradient-0)" d="M0,99L60,104.5C120,110,240,121,360,110C480,99,600,66,720,49.5C840,33,960,33,1080,44C1200,55,1320,77,1440,110C1560,143,1680,187,1800,170.5C1920,154,2040,77,2160,44C2280,11,2400,22,2520,71.5C2640,121,2760,209,2880,203.5C3000,198,3120,99,3240,55C3360,11,3480,22,3600,33C3720,44,3840,55,3960,99C4080,143,4200,220,4320,214.5C4440,209,4560,121,4680,71.5C4800,22,4920,11,5040,44C5160,77,5280,154,5400,170.5C5520,187,5640,143,5760,143C5880,143,6000,187,6120,176C6240,165,6360,99,6480,66C6600,33,6720,33,6840,77C6960,121,7080,209,7200,225.5C7320,242,7440,187,7560,137.5C7680,88,7800,44,7920,66C8040,88,8160,176,8280,203.5C8400,231,8520,198,8580,181.5L8640,165L8640,330L8580,330C8520,330,8400,330,8280,330C8160,330,8040,330,7920,330C7800,330,7680,330,7560,330C7440,330,7320,330,7200,330C7080,330,6960,330,6840,330C6720,330,6600,330,6480,330C6360,330,6240,330,6120,330C6000,330,5880,330,5760,330C5640,330,5520,330,5400,330C5280,330,5160,330,5040,330C4920,330,4800,330,4680,330C4560,330,4440,330,4320,330C4200,330,4080,330,3960,330C3840,330,3720,330,3600,330C3480,330,3360,330,3240,330C3120,330,3000,330,2880,330C2760,330,2640,330,2520,330C2400,330,2280,330,2160,330C2040,330,1920,330,1800,330C1680,330,1560,330,1440,330C1320,330,1200,330,1080,330C960,330,840,330,720,330C600,330,480,330,360,330C240,330,120,330,60,330L0,330Z"/><defs><linearGradient id="sw-gradient-1" x1="0" x2="0" y1="1" y2="0"><stop stop-color="rgba(164, 55, 219, 1)" offset="0%"/><stop stop-color="rgba(164, 55, 219, 1)" offset="100%"/></linearGradient></defs><path style="transform:translate(0, 50px); opacity:0.9" fill="url(#sw-gradient-1)" d="M0,99L60,93.5C120,88,240,77,360,110C480,143,600,220,720,214.5C840,209,960,121,1080,71.5C1200,22,1320,11,1440,16.5C1560,22,1680,44,1800,88C1920,132,2040,198,2160,203.5C2280,209,2400,154,2520,121C2640,88,2760,77,2880,99C3000,121,3120,176,3240,181.5C3360,187,3480,143,3600,137.5C3720,132,3840,165,3960,187C4080,209,4200,220,4320,198C4440,176,4560,121,4680,88C4800,55,4920,44,5040,55C5160,66,5280,99,5400,143C5520,187,5640,242,5760,242C5880,242,6000,187,6120,176C6240,165,6360,198,6480,176C6600,154,6720,77,6840,77C6960,77,7080,154,7200,170.5C7320,187,7440,143,7560,126.5C7680,110,7800,121,7920,104.5C8040,88,8160,44,8280,55C8400,66,8520,132,8580,165L8640,198L8640,330L8580,330C8520,330,8400,330,8280,330C8160,330,8040,330,7920,330C7800,330,7680,330,7560,330C7440,330,7320,330,7200,330C7080,330,6960,330,6840,330C6720,330,6600,330,6480,330C6360,330,6240,330,6120,330C6000,330,5880,330,5760,330C5640,330,5520,330,5400,330C5280,330,5160,330,5040,330C4920,330,4800,330,4680,330C4560,330,4440,330,4320,330C4200,330,4080,330,3960,330C3840,330,3720,330,3600,330C3480,330,3360,330,3240,330C3120,330,3000,330,2880,330C2760,330,2640,330,2520,330C2400,330,2280,330,2160,330C2040,330,1920,330,1800,330C1680,330,1560,330,1440,330C1320,330,1200,330,1080,330C960,330,840,330,720,330C600,330,480,330,360,330C240,330,120,330,60,330L0,330Z"/></svg>