<?xml version="1.0" standalone="no"?>
<svg xmlns:xlink="http://www.w3.org/1999/xlink" id="wave" style="transform:rotate(180deg); transition: 0.3s" viewBox="0 0 1440 280" version="1.1" xmlns="http://www.w3.org/2000/svg"><defs><linearGradient id="sw-gradient-0" x1="0" x2="0" y1="1" y2="0"><stop stop-color="rgba(243, 106, 62, 1)" offset="0%"/><stop stop-color="rgba(255, 179, 11, 1)" offset="100%"/></linearGradient></defs><path style="transform:translate(0, 0px); opacity:1" fill="url(#sw-gradient-0)" d="M0,28L1440,224L2880,224L4320,0L5760,0L7200,112L8640,168L10080,112L11520,168L12960,252L14400,112L15840,28L17280,56L18720,0L20160,140L21600,56L23040,196L24480,168L25920,112L27360,56L28800,196L30240,56L31680,0L33120,56L34560,56L34560,280L33120,280L31680,280L30240,280L28800,280L27360,280L25920,280L24480,280L23040,280L21600,280L20160,280L18720,280L17280,280L15840,280L14400,280L12960,280L11520,280L10080,280L8640,280L7200,280L5760,280L4320,280L2880,280L1440,280L0,280Z"/></svg>